<svg id="phone-fill" xmlns="http://www.w3.org/2000/svg" width="32" height="32" viewBox="0 0 32 32">
  <path id="Path_2234" data-name="Path 2234" d="M0,0H32V32H0Z" fill="none"/>
  <path id="Path_2235" data-name="Path 2235" d="M29,22.384v5.108a1.444,1.444,0,0,1-1.343,1.442c-.631.043-1.147.066-1.546.066A23.11,23.11,0,0,1,3,5.889q0-.6.066-1.546A1.444,1.444,0,0,1,4.508,3H9.615a.722.722,0,0,1,.719.65c.033.332.064.6.092.8a20.08,20.08,0,0,0,1.745,5.779.658.658,0,0,1-.212.819L8.843,13.273a18.846,18.846,0,0,0,9.886,9.886l2.224-3.111a.667.667,0,0,1,.828-.215,20.079,20.079,0,0,0,5.778,1.741c.2.029.465.061.794.092a.722.722,0,0,1,.649.719Z" transform="translate(0 0)" fill="#e2902d"/>
</svg>
