<?xml version="1.0" encoding="UTF-8"?>
<svg id="Layer_1" data-name="Layer 1" xmlns="http://www.w3.org/2000/svg" viewBox="0 0 500 500">
  <defs>
    <style>
      .cls-1 {
        fill: #e29942;
      }
    </style>
  </defs>
  <path class="cls-1" d="m239.69,311.95c-.08,3.87-3.16,6.7-7.41,6.72-5.38.03-10.77.01-16.16.01s-10.48.02-15.72,0c-4.42-.02-7.5-2.84-7.51-6.82,0-3.98,3.09-6.83,7.5-6.84,10.62-.01,21.25-.02,31.88,0,4.33.01,7.5,3.02,7.42,6.93Z"/>
  <path class="cls-1" d="m193.65,235.92c1.38-2.7,3.72-3.81,6.71-3.8,10.09.02,20.18,0,30.27,0,22.91,0,45.82-.01,68.73.01,5.56.01,9,5.04,6.69,9.76-1.39,2.82-3.8,3.92-6.88,3.91-16.53-.02-33.07-.01-49.61-.01s-32.92.02-49.38,0c-5.53-.01-8.92-5.18-6.53-9.86Z"/>
  <path class="cls-1" d="m306.2,278.02c-1.24,2.86-3.56,4.21-6.68,4.21-7.73.01-15.47.01-23.21.01-25.03,0-50.06,0-75.1-.01-.98,0-1.99.03-2.93-.19-3.47-.77-5.76-4.01-5.36-7.4.42-3.51,3.31-6.05,7.09-6.06,16.69-.02,33.38-.01,50.07-.01s32.92-.02,49.38.01c5.32.01,8.75,4.82,6.74,9.44Z"/>
  <path class="cls-1" d="m331.92,189.18c-14.54-13.79-29.08-27.57-43.67-41.31-4.71-4.45-10.39-6.82-16.89-6.83-28.08-.05-56.16-.03-84.25,0-3.45,0-6.8.69-9.91,2.21-9.99,4.89-14.84,12.98-14.84,24.07.01,60.12,0,120.24.01,180.35,0,.76-.02,1.52.02,2.28.48,8.89,4.47,15.73,11.93,20.59,3.04,1.98,6.5,2.78,9.91,3.73h133.93c.26-.12.52-.31.8-.36,12.77-2.44,21.04-12.3,21.05-25.32.03-46.76.01-93.52.02-140.28,0-7.53-2.65-13.94-8.11-19.12Zm-13.45,6.08c-.58.63-1.14.41-1.63.41-10.24.01-20.48.01-30.71.01-2.87-.01-3.5-.63-3.5-3.44-.01-10.09-.01-20.17-.01-30.9,12.23,11.57,24.04,22.74,35.85,33.92Zm7.88,153.2c0,7.33-4.79,12.13-12.11,12.13-41.98,0-83.96,0-125.94,0-7.5,0-12.26-4.74-12.27-12.21-.01-30.22,0-60.43,0-90.65s.12-60.13-.08-90.2c-.05-7.84,5.52-12.99,12.84-12.93,25.89.2,51.77.07,77.66.08,2.83,0,2.5-.35,2.5,2.58.02,11.69,0,23.39.01,35.08.01,10.25,6.72,16.99,16.94,17,12.76,0,25.51.04,38.27-.04,1.82-.01,2.23.51,2.23,2.26-.05,45.64-.04,91.27-.05,136.9Z"/>
  <path class="cls-1" d="m239.69,311.95c-.08,3.87-3.16,6.7-7.41,6.72-5.38.03-10.77.01-16.16.01s-10.48.02-15.72,0c-4.42-.02-7.5-2.84-7.51-6.82,0-3.98,3.09-6.83,7.5-6.84,10.62-.01,21.25-.02,31.88,0,4.33.01,7.5,3.02,7.42,6.93Z"/>
  <path class="cls-1" d="m193.65,235.92c1.38-2.7,3.72-3.81,6.71-3.8,10.09.02,20.18,0,30.27,0,22.91,0,45.82-.01,68.73.01,5.56.01,9,5.04,6.69,9.76-1.39,2.82-3.8,3.92-6.88,3.91-16.53-.02-33.07-.01-49.61-.01s-32.92.02-49.38,0c-5.53-.01-8.92-5.18-6.53-9.86Z"/>
  <path class="cls-1" d="m306.2,278.02c-1.24,2.86-3.56,4.21-6.68,4.21-7.73.01-15.47.01-23.21.01-25.03,0-50.06,0-75.1-.01-.98,0-1.99.03-2.93-.19-3.47-.77-5.76-4.01-5.36-7.4.42-3.51,3.31-6.05,7.09-6.06,16.69-.02,33.38-.01,50.07-.01s32.92-.02,49.38.01c5.32.01,8.75,4.82,6.74,9.44Z"/>
  <path class="cls-1" d="m306.05,241.89c-1.39,2.82-3.8,3.92-6.88,3.91-16.53-.02-33.07-.01-49.61-.01s-32.92.02-49.38,0c-5.53-.01-8.92-5.18-6.53-9.86,1.38-2.7,3.72-3.81,6.71-3.8,10.09.02,20.18,0,30.27,0,22.91,0,45.82-.01,68.73.01,5.56.01,9,5.04,6.69,9.76Z"/>
  <path class="cls-1" d="m306.2,278.02c-1.24,2.86-3.56,4.21-6.68,4.21-7.73.01-15.47.01-23.21.01-25.03,0-50.06,0-75.1-.01-.98,0-1.99.03-2.93-.19-3.47-.77-5.76-4.01-5.36-7.4.42-3.51,3.31-6.05,7.09-6.06,16.69-.02,33.38-.01,50.07-.01s32.92-.02,49.38.01c5.32.01,8.75,4.82,6.74,9.44Z"/>
  <path class="cls-1" d="m239.69,311.95c-.08,3.87-3.16,6.7-7.41,6.72-5.38.03-10.77.01-16.16.01s-10.48.02-15.72,0c-4.42-.02-7.5-2.84-7.51-6.82,0-3.98,3.09-6.83,7.5-6.84,10.62-.01,21.25-.02,31.88,0,4.33.01,7.5,3.02,7.42,6.93Z"/>
</svg>