<svg id="customer-service-2-fill" xmlns="http://www.w3.org/2000/svg" width="64" height="64" viewBox="0 0 64 64">
  <path id="Path_2232" data-name="Path 2232" d="M0,0H64V64H0Z" fill="none"/>
  <path id="Path_2233" data-name="Path 2233" d="M57.364,20.726A5.636,5.636,0,0,1,63,26.362V37.636a5.636,5.636,0,0,1-5.636,5.637H54.371A22.549,22.549,0,0,1,32,63V57.363a16.909,16.909,0,0,0,16.909-16.91V23.544a16.909,16.909,0,1,0-33.818,0V43.272H6.636A5.636,5.636,0,0,1,1,37.636V26.362a5.636,5.636,0,0,1,5.636-5.637H9.629a22.548,22.548,0,0,1,44.741,0ZM20.051,42.666l2.987-4.78a16.925,16.925,0,0,0,17.924,0l2.987,4.78a22.561,22.561,0,0,1-23.9,0Z" fill="#14133c"/>
</svg>
