<?xml version="1.0" encoding="UTF-8"?>
<svg id="Layer_1" data-name="Layer 1" xmlns="http://www.w3.org/2000/svg" viewBox="0 0 500 500">
  <defs>
    <style>
      .cls-1 {
        fill: #e29942;
      }
    </style>
  </defs>
  <path class="cls-1" d="m263.7,283.74c-.06,4.56-3.62,7.77-8.7,7.78-10.28.01-20.57,0-30.86,0s-20.4.01-30.61,0c-5.22-.01-8.82-3.25-8.82-7.9s3.57-7.89,8.82-7.9c20.49,0,40.98-.01,61.47.01,5.17,0,8.77,3.34,8.7,8.01Z"/>
  <path class="cls-1" d="m326.44,254.61c-1.14,3.16-3.49,4.89-6.82,5.27-.73.09-1.48.04-2.22.04-41.06,0-82.13,0-123.19-.01-1.15,0-2.33.02-3.43-.24-3.89-.93-6.44-4.58-6.04-8.47.4-3.89,3.61-6.99,7.63-7.05,6.41-.1,12.83-.03,19.25-.03,14.82-.01,29.63,0,44.44,0,20.82,0,41.64-.02,62.46.01,5.94.01,9.84,5.2,7.92,10.48Z"/>
  <path class="cls-1" d="m370.9,191.5c0-15.52-9.93-25.46-25.43-25.46-31.02-.01-62.05-.01-93.07-.01s-62.71-.01-94.06.01c-14.18.02-24.46,10.28-24.47,24.45-.02,41.64-.02,83.28,0,124.92.01,14.16,10.3,24.4,24.47,24.45,6.67.02,13.33.11,20-.05,2.29-.06,3.03.41,3,2.89-.15,12.09-.07,24.19-.06,36.29,0,3.33,1.4,5.89,4.4,7.41,3.03,1.54,5.9,1.01,8.56-.98.79-.59,1.55-1.22,2.32-1.84,17.6-14.08,35.21-28.15,52.79-42.26,1.29-1.04,2.56-1.49,4.23-1.49,30.7.05,61.39.03,92.09.04,2.56,0,5.09-.14,7.57-.81,10.73-2.93,17.65-12.12,17.65-23.63.03-41.31.02-82.62.01-123.93Zm-15.8,123.83c0,5.52-3.23,8.72-8.75,8.73-31.93.01-63.86.04-95.78-.05-3.42-.01-6.16.97-8.8,3.1-14.08,11.38-28.23,22.65-42.37,33.95-.62.5-1.27.97-2.33,1.77,0-10.15,0-19.77,0-29.38,0-6.41-2.96-9.38-9.32-9.39-9.71,0-19.42.01-29.13,0-5.87,0-8.95-3.11-8.95-9.02-.01-41.39-.01-82.78,0-124.17,0-5.89,3.1-9.03,8.93-9.03,62.53-.01,125.07-.01,187.61,0,5.69,0,8.89,3.16,8.89,8.83.01,41.55.01,83.11,0,124.66Z"/>
  <path class="cls-1" d="m263.7,283.74c-.06,4.56-3.62,7.77-8.7,7.78-10.28.01-20.57,0-30.86,0s-20.4.01-30.61,0c-5.22-.01-8.82-3.25-8.82-7.9s3.57-7.89,8.82-7.9c20.49,0,40.98-.01,61.47.01,5.17,0,8.77,3.34,8.7,8.01Z"/>
  <path class="cls-1" d="m326.44,254.61c-1.14,3.16-3.49,4.89-6.82,5.27-.73.09-1.48.04-2.22.04-41.06,0-82.13,0-123.19-.01-1.15,0-2.33.02-3.43-.24-3.89-.93-6.44-4.58-6.04-8.47.4-3.89,3.61-6.99,7.63-7.05,6.41-.1,12.83-.03,19.25-.03,14.82-.01,29.63,0,44.44,0,20.82,0,41.64-.02,62.46.01,5.94.01,9.84,5.2,7.92,10.48Z"/>
  <path class="cls-1" d="m326.44,254.61c-1.14,3.16-3.49,4.89-6.82,5.27-.73.09-1.48.04-2.22.04-41.06,0-82.13,0-123.19-.01-1.15,0-2.33.02-3.43-.24-3.89-.93-6.44-4.58-6.04-8.47.4-3.89,3.61-6.99,7.63-7.05,6.41-.1,12.83-.03,19.25-.03,14.82-.01,29.63,0,44.44,0,20.82,0,41.64-.02,62.46.01,5.94.01,9.84,5.2,7.92,10.48Z"/>
  <path class="cls-1" d="m263.7,283.74c-.06,4.56-3.62,7.77-8.7,7.78-10.28.01-20.57,0-30.86,0s-20.4.01-30.61,0c-5.22-.01-8.82-3.25-8.82-7.9s3.57-7.89,8.82-7.9c20.49,0,40.98-.01,61.47.01,5.17,0,8.77,3.34,8.7,8.01Z"/>
</svg>