<svg xmlns="http://www.w3.org/2000/svg" width="56" height="56" viewBox="0 0 56 56">
  <g id="Group_19035" data-name="Group 19035" transform="translate(-266 -362)">
    <circle id="Ellipse_231" data-name="Ellipse 231" cx="28" cy="28" r="28" transform="translate(266 362)" fill="#e2902d"/>
    <g id="facebook-circle-fill" transform="translate(282 378)">
      <path id="Path_2220" data-name="Path 2220" d="M0,0H24V24H0Z" fill="none"/>
      <path id="Path_2221" data-name="Path 2221" d="M12,2a10,10,0,0,0-1.562,19.879V14.89H7.9V12h2.54V9.8a3.528,3.528,0,0,1,3.777-3.89,15.393,15.393,0,0,1,2.238.2v2.46h-1.26a1.445,1.445,0,0,0-1.63,1.562V12h2.773l-.443,2.89h-2.33v6.989A10,10,0,0,0,12,2Z" fill="#fff"/>
    </g>
  </g>
</svg>
