<svg id="phone-fill" xmlns="http://www.w3.org/2000/svg" width="18" height="18" viewBox="0 0 18 18">
  <path id="Path_2248" data-name="Path 2248" d="M0,0H18V18H0Z" fill="none"/>
  <path id="Path_2249" data-name="Path 2249" d="M16.5,13.065v2.652a.75.75,0,0,1-.7.748c-.328.023-.6.035-.8.035A12,12,0,0,1,3,4.5q0-.311.035-.8A.75.75,0,0,1,3.783,3H6.435a.375.375,0,0,1,.374.338c.017.172.033.31.048.414a10.426,10.426,0,0,0,.906,3,.342.342,0,0,1-.11.425L6.034,8.334a9.785,9.785,0,0,0,5.133,5.133l1.155-1.616a.347.347,0,0,1,.43-.112,10.426,10.426,0,0,0,3,.9c.1.015.241.032.412.048a.375.375,0,0,1,.337.373Z" transform="translate(-0.75 -0.75)" fill="#fff"/>
</svg>
