<svg xmlns="http://www.w3.org/2000/svg" width="56" height="56" viewBox="0 0 56 56">
  <g id="Group_19035" data-name="Group 19035" transform="translate(-266 -362)">
    <circle id="Ellipse_231" data-name="Ellipse 231" cx="28" cy="28" r="28" transform="translate(266 362)" fill="#e2902d"/>
    <g id="youtube-fill" transform="translate(282 378)">
      <path id="Path_2226" data-name="Path 2226" d="M0,0H24V24H0Z" fill="none"/>
      <path id="Path_2227" data-name="Path 2227" d="M21.543,6.5A31.058,31.058,0,0,1,22,12a31.058,31.058,0,0,1-.457,5.5A2.811,2.811,0,0,1,19.6,19.524C17.9,20,12,20,12,20s-5.893,0-7.605-.476A2.811,2.811,0,0,1,2.457,17.5,31.058,31.058,0,0,1,2,12a31.058,31.058,0,0,1,.457-5.5A2.811,2.811,0,0,1,4.395,4.476C6.107,4,12,4,12,4s5.9,0,7.6.476A2.811,2.811,0,0,1,21.543,6.5ZM10,15.5,16,12,10,8.5Z" fill="#fff"/>
    </g>
  </g>
</svg>
