<svg id="list-settings-line" xmlns="http://www.w3.org/2000/svg" width="24" height="24" viewBox="0 0 24 24">
  <path id="Path_2142" data-name="Path 2142" d="M0,0H24V24H0Z" fill="none"/>
  <path id="Path_2143" data-name="Path 2143" d="M2,18H9v2H2Zm0-7h9v2H2ZM2,4H22V6H2Zm18.674,9.025,1.156-.391,1,1.732-.916.805a4.017,4.017,0,0,1,0,1.658l.916.8-1,1.732-1.156-.391a3.985,3.985,0,0,1-1.435.83L19,21H17l-.24-1.2a4,4,0,0,1-1.434-.83l-1.156.392-1-1.732.916-.805a4.017,4.017,0,0,1,0-1.658l-.916-.805,1-1.732,1.156.391a3.985,3.985,0,0,1,1.435-.83L17,11h2l.24,1.2a3.975,3.975,0,0,1,1.434.83ZM18,18a2,2,0,1,0-2-2A2,2,0,0,0,18,18Z" fill="#14133c"/>
</svg>
