<?xml version="1.0" encoding="UTF-8"?>
<svg id="Layer_1" data-name="Layer 1" xmlns="http://www.w3.org/2000/svg" viewBox="0 0 500 500">
  <defs>
    <style>
      .cls-1 {
        fill: #e29942;
      }
    </style>
  </defs>
  <path class="cls-1" d="m344.29,250.78c-.19-4.1-.14-8.24-.97-12.26-3.99-19.33-12.78-36.24-26.1-50.76-9.69-10.57-21.06-18.92-34.13-24.86-9.34-4.25-18.99-7.57-29.32-8.33-7.64-.57-15.29-.52-22.95-.39-8.64.15-16.98,1.59-25.11,4.32-18.61,6.25-34.38,16.75-47.3,31.57-12.25,14.04-20.56,30.13-24.02,48.42-2.45,12.96-2.33,26.24-.55,39.24,2.87,21.07,12.47,39.18,26.81,54.75,10.39,11.29,22.68,19.97,36.85,25.92,7.64,3.22,15.48,5.8,23.78,6.68,3.63.38,7.29.32,10.93.69h13.21c.91-.45,1.89-.14,2.83-.2,4.06-.23,8.17-.17,12.16-.99,18.95-3.9,35.57-12.52,49.89-25.44,11.68-10.55,20.65-23.13,26.79-37.67,3.24-7.69,5.8-15.56,6.72-23.89.4-3.63.32-7.31.68-10.95v-13.22c-.44-.84-.15-1.76-.2-2.63Zm-136.99-53.95c4.4-9.65,9.59-18.72,18.23-25.3,1.7-1.29,3.58-2.29,5.5-3.22,1.2-.57,1.65-.45,1.63,1.05-.08,4.54-.04,9.08-.04,13.61s-.05,8.94.04,13.41c.02,1.38-.42,1.71-1.73,1.7-7.5-.06-14.98-.02-22.48-.04-.75,0-1.84.31-1.15-1.21Zm-.42-24.3c-3.87,5.48-7.22,11.21-9.98,17.27-1.06,2.32-2.04,4.64-2.96,7.02-.36.91-.8,1.26-1.78,1.26-7.48-.04-14.97-.02-23.06-.02,10.76-11.88,23.15-20.33,37.78-25.53Zm-61,79.51c1.25-14.58,5.73-28.07,13.28-40.58.44-.72.94-1.03,1.81-1.02,9,.02,18.02.02,27.02,0,1.12-.01,1.43.24,1.12,1.4-3.55,13.2-5.31,26.68-5.84,40.33-.06,1.34-.49,1.7-1.81,1.69-5.7-.07-11.42-.02-17.12-.02s-11.14-.05-16.7.02c-1.43.02-1.89-.31-1.76-1.82Zm15.62,57.57c-.99,0-1.77-.05-2.4-1.08-7.48-12.46-11.94-25.9-13.22-40.4-.14-1.59.3-1.96,1.84-1.94,5.64.08,11.27.04,16.92.04s11,.06,16.5-.04c1.56-.04,2.09.36,2.15,2,.45,12.12,1.96,24.1,4.75,35.92.04.13.06.27.08.4.31,1.66,1.71,3.68.81,4.8-.67.83-3.1.29-4.74.29-7.57.01-15.12,0-22.69.01Zm45.34,38.11c-14.61-5.43-26.99-13.86-37.73-25.73h7.03c5.21,0,10.43.01,15.66,0,.9,0,1.65-.05,2.09,1.1,3.27,8.56,7.42,16.67,12.91,24.04.06.08.02.23.04.58Zm25.78,4.74c-13.65-6-19.91-17.79-25.96-30.46,8.58,0,16.68,0,24.77-.02.87,0,1.21.26,1.2,1.18-.02,9.62-.01,19.23-.01,29.31Zm-1.65-42.82c-9-.06-18.02-.05-27.02-.01-1.08,0-1.69-.15-2.04-1.39-3.84-13.29-5.67-26.89-6.31-40.67-.05-.96.18-1.35,1.21-1.34,11.55.02,23.1.02,34.65-.01,1.35,0,1.16.81,1.16,1.62v20.03c0,6.68-.02,13.35.02,20.03.01,1.29-.27,1.77-1.67,1.76Zm1.65-77.27c0,6.53-.04,13.07.04,19.61.01,1.34-.21,1.91-1.76,1.9-11.2-.07-22.42-.05-33.63-.02-1.08,0-1.76-.01-1.69-1.5.65-13.58,2.49-26.97,6.15-40.08.43-1.52,1.12-1.85,2.57-1.84,8.8.06,17.6.06,26.41-.01,1.5-.01,1.98.32,1.96,1.91-.1,6.68-.05,13.35-.05,20.03Zm75.49-34.76c-.26.57-.64.45-.96.45-7.14.01-14.28.01-21.42.01-.84,0-1.56.06-1.96-1-3.31-8.7-7.53-16.92-12.98-24.52,14.63,5.23,26.99,13.66,37.32,25.05Zm-63.1-14.82c0-4.47.05-8.94-.04-13.41-.02-1.51.43-1.58,1.63-1.05,5.76,2.55,10.13,6.75,13.93,11.63,3.94,5.07,6.97,10.69,9.66,16.51.74,1.59.05,1.63-1.22,1.62-7.42-.02-14.85-.05-22.26.01-1.33.01-1.76-.32-1.73-1.7.08-4.54.04-9.08.04-13.61Zm1.69,27.65c8.93.05,17.88.07,26.81-.01,1.5-.02,1.98.51,2.35,1.84,3.69,13.1,5.54,26.49,6.18,40.07.05,1.2-.29,1.53-1.45,1.52-11.34-.04-22.7-.04-34.05.01-1.34.01-1.57-.46-1.56-1.66.05-6.68.02-13.35.02-20.03s.04-13.35-.04-20.03c-.01-1.35.37-1.72,1.72-1.71Zm-1.69,77.55c0-6.68.02-13.35-.04-20.03-.01-1.29.29-1.77,1.69-1.76,11.27.06,22.56.05,33.83.01,1.29-.01,1.59.37,1.53,1.64-.64,13.44-2.47,26.69-6.07,39.68-.44,1.6-1.03,2.15-2.77,2.13-8.8-.1-17.6-.08-26.41-.01-1.46.01-1.83-.4-1.81-1.84.07-6.6.04-13.21.04-19.81Zm3.01,63.04c-2.97,1.6-3.01,1.52-3.01-1.84,0-8.45-.01-16.9.01-25.36,0-.78-.44-1.85,1.13-1.84,8.1.05,16.2.02,24.79.02-5.56,11.72-11.29,22.7-22.93,29.02Zm22.75-3.49c4-5.71,7.48-11.69,10.3-18.03.91-2.07,1.82-4.15,2.61-6.26.34-.93.81-1.27,1.79-1.26,7.47.04,14.96.02,23.06.02-10.76,11.88-23.16,20.31-37.76,25.53Zm60.97-79.3c-1.32,14.49-5.77,27.93-13.27,40.38-.52.87-1.14,1.02-2.02,1.01-4.48-.02-8.94-.01-13.41-.01s-8.93-.02-13.41.02c-1.14.01-1.41-.26-1.1-1.41,3.49-13.08,5.29-26.41,5.8-39.91.07-1.71.59-2.13,2.27-2.11,11.07.08,22.14.07,33.2.01,1.62-.01,2.1.36,1.95,2.03Zm-1.83-14.35c-5.64-.1-11.27-.04-16.92-.04s-11-.06-16.5.04c-1.56.02-2.1-.36-2.16-2-.45-12.05-1.92-23.97-4.72-35.72-.05-.2-.07-.42-.11-.62-.32-1.65-1.71-3.67-.81-4.8.65-.83,3.09-.27,4.74-.27,7.56-.02,15.12,0,22.69-.02.99,0,1.76.04,2.39,1.08,7.48,12.47,11.94,25.91,13.23,40.4.14,1.59-.29,1.97-1.84,1.95Z"/>
</svg>