<?xml version="1.0" encoding="UTF-8"?>
<svg id="Layer_1" data-name="Layer 1" xmlns="http://www.w3.org/2000/svg" viewBox="0 0 500 500">
  <defs>
    <style>
      .cls-1 {
        fill: #e29942;
      }
    </style>
  </defs>
  <path class="cls-1" d="m161.06,232.73c0-2.64,1.97-4.06,5.67-4.06,7.68,0,15.36,0,23.05,0s15.37,0,23.06,0c4,0,5.74,1.19,5.74,3.88,0,2.71-1.87,4.07-5.64,4.07-15.37,0-30.74,0-46.12,0-3.89,0-5.77-1.28-5.77-3.89Z"/>
  <path class="cls-1" d="m268.02,258.04c-.02,2.31-1.44,3.62-3.67,4-.83.14-1.7.08-2.55.08h-47.51c-15.64,0-31.28,0-46.93,0-1.04,0-2.12.06-3.11-.19-2.08-.52-3.27-1.94-3.17-4.12.08-2.02,1.23-3.36,3.25-3.75.92-.18,1.88-.19,2.83-.19,31.57,0,63.15,0,94.72,0,.85,0,1.72-.02,2.55.11,2.27.37,3.61,1.75,3.58,4.06Z"/>
  <path class="cls-1" d="m268.02,283.17c.03,2.16-1.17,3.57-3.3,3.99-.91.18-1.88.11-2.83.11h-94.7c-.48,0-.95.02-1.42,0-2.98-.09-4.77-1.67-4.71-4.14.05-2.35,1.8-3.87,4.6-3.94,1.99-.05,3.98-.02,5.97-.02h42.94c15.74,0,31.47,0,47.2,0,.95,0,1.91-.08,2.84.08,2.15.37,3.36,1.76,3.4,3.9Z"/>
  <path class="cls-1" d="m268.02,308.59c-.07,2.01-1.19,3.37-3.21,3.79-.92.18-1.88.2-2.83.2-31.57,0-63.15,0-94.72,0-.38,0-.76,0-1.14,0-3.24-.11-5.07-1.61-5.07-4.13s1.88-4.1,5.07-4.12c8.25-.03,16.5-.02,24.75-.02h23.89c15.65,0,31.29,0,46.94,0,1.04,0,2.11-.06,3.11.17,2.09.5,3.3,1.91,3.21,4.09Z"/>
  <path class="cls-1" d="m316.83,281.67c.05,8.04.05,16.09,0,24.13-.02,3.22-1.57,5.12-4.05,5.16-2.59.05-4.18-1.92-4.2-5.31-.03-3.87,0-7.75,0-11.64,0-4.07-.03-8.13,0-12.21.03-3.16,1.6-5.11,4.07-5.16,2.51-.05,4.16,1.83,4.18,5.01Z"/>
  <path class="cls-1" d="m308.58,259.49c-.03-8.04-.03-16.09,0-24.12.02-3.18,1.61-5.04,4.15-5.04s4.08,1.74,4.11,5.03c.04,4.06,0,8.13,0,12.21s.05,7.94-.02,11.92c-.05,3.31-1.51,5.04-4.12,5.04-2.57,0-4.12-1.81-4.13-5.03Z"/>
  <path class="cls-1" d="m379.1,252.55c3.21-.24,4.6-1.63,4.61-4.87.03-15.91.03-31.83,0-47.74,0-3.36-1.47-4.78-4.87-4.86-2.47-.05-4.94-.17-7.4.04-2.23.18-2.89-.7-3.17-2.79-1.28-9.57-2.71-19.12-4.13-28.66-.56-3.81-1.88-4.85-5.83-4.34-5.73.72-11.45,1.59-17.17,2.45-34.98,5.22-69.94,10.44-104.91,15.68-39.18,5.86-78.37,11.73-117.55,17.61-4.15.62-4.98,1.59-4.98,5.71,0,15.35,0,30.69,0,46.03,0,4.4.93,5.36,5.44,5.79,9.5.9,16.44,8.67,16.31,18.27-.12,9.12-7.23,16.81-16.19,17.49-4.88.37-5.87,1.43-5.87,6.33,0,14.87,0,29.74,0,44.61,0,5.31,1.15,6.44,6.55,6.44h257.92c4.02,0,5.68-1.36,5.69-5.01.05-15.82.05-31.63,0-47.45,0-3.15-1.51-4.6-4.7-4.89-10.23-.95-17.3-8.35-17.2-18.02.1-9.72,7.31-17.1,17.43-17.83Zm-172.64-62.52c24.74-3.7,49.48-7.38,74.22-11.07,4.03-.6,8.06-1.18,12.08-1.86,1.37-.23,2.07-.04,2.23,1.56.29,2.82.75,5.63,1.27,8.42.52,2.79,2.32,4.18,4.7,3.81,2.35-.36,3.57-2.26,3.19-5.12-.34-2.63-.67-5.26-1.2-7.85-.35-1.72.18-2.34,1.88-2.58,13.22-1.88,26.44-3.84,39.65-5.77,3.38-.49,6.75-1.01,10.12-1.55,1.22-.19,2.11-.29,2.35,1.44,1.09,7.97,2.26,15.92,3.52,23.86.26,1.59-.17,2.06-1.66,1.91-.56-.05-1.13,0-1.7,0h-182.02c0-.15-.02-.3-.02-.46,10.47-1.57,20.93-3.15,31.4-4.72Zm167.27,105.67c1.66.43,2.07,1.1,2.06,2.69-.05,12.41-.07,24.81,0,37.22,0,1.85-.52,2.42-2.39,2.41-18.03-.06-36.05-.07-54.08,0-2.05.02-2.61-.68-2.51-2.61.14-2.55.1-5.12,0-7.67-.1-2.99-1.74-4.76-4.19-4.71-2.42.05-3.99,1.88-4.05,4.86-.05,2.65-.08,5.31.02,7.95.06,1.55-.38,2.35-2.05,2.14-.56-.07-1.14,0-1.71,0H125.5q-3.69,0-3.69-3.62c0-11.84.05-23.68-.04-35.52-.02-1.93.45-2.72,2.47-3.23,11.51-2.89,19.58-13.28,19.59-24.89.02-11.87-7.95-22.18-19.63-25.13-1.97-.5-2.45-1.3-2.44-3.23.09-12.03.11-24.05-.02-36.08-.02-2.45.54-3.18,3.11-3.17,30.17.1,60.34.07,90.52.07s60.16.03,90.24-.06c2.58,0,3.55.62,3.31,3.27-.22,2.44-.11,4.92,0,7.38.12,2.67,1.68,4.18,4.06,4.15,2.33-.02,3.94-1.62,4.03-4.22.09-2.84.09-5.69,0-8.52-.05-1.5.27-2.18,1.99-2.18,18.32.06,36.63.05,54.94.02,1.57,0,2.16.43,2.15,2.07-.05,12.6-.06,25.19,0,37.79,0,1.82-.92,2.07-2.35,2.45-11.76,3.1-19.72,13.33-19.67,25.12.05,12.5,7.47,22.11,19.66,25.27Z"/>
  <path class="cls-1" d="m161.06,232.73c0-2.64,1.97-4.06,5.67-4.06,7.68,0,15.36,0,23.05,0s15.37,0,23.06,0c4,0,5.74,1.19,5.74,3.88,0,2.71-1.87,4.07-5.64,4.07-15.37,0-30.74,0-46.12,0-3.89,0-5.77-1.28-5.77-3.89Z"/>
  <path class="cls-1" d="m268.02,258.04c-.02,2.31-1.44,3.62-3.67,4-.83.14-1.7.08-2.55.08h-47.51c-15.64,0-31.28,0-46.93,0-1.04,0-2.12.06-3.11-.19-2.08-.52-3.27-1.94-3.17-4.12.08-2.02,1.23-3.36,3.25-3.75.92-.18,1.88-.19,2.83-.19,31.57,0,63.15,0,94.72,0,.85,0,1.72-.02,2.55.11,2.27.37,3.61,1.75,3.58,4.06Z"/>
  <path class="cls-1" d="m268.02,283.17c.03,2.16-1.17,3.57-3.3,3.99-.91.18-1.88.11-2.83.11h-94.7c-.48,0-.95.02-1.42,0-2.98-.09-4.77-1.67-4.71-4.14.05-2.35,1.8-3.87,4.6-3.94,1.99-.05,3.98-.02,5.97-.02h42.94c15.74,0,31.47,0,47.2,0,.95,0,1.91-.08,2.84.08,2.15.37,3.36,1.76,3.4,3.9Z"/>
  <path class="cls-1" d="m268.02,308.59c-.07,2.01-1.19,3.37-3.21,3.79-.92.18-1.88.2-2.83.2-31.57,0-63.15,0-94.72,0-.38,0-.76,0-1.14,0-3.24-.11-5.07-1.61-5.07-4.13s1.88-4.1,5.07-4.12c8.25-.03,16.5-.02,24.75-.02h23.89c15.65,0,31.29,0,46.94,0,1.04,0,2.11-.06,3.11.17,2.09.5,3.3,1.91,3.21,4.09Z"/>
  <path class="cls-1" d="m316.83,305.8c-.02,3.22-1.57,5.12-4.05,5.16-2.59.05-4.18-1.92-4.2-5.31-.03-3.87,0-7.75,0-11.64,0-4.07-.03-8.13,0-12.21.03-3.16,1.6-5.11,4.07-5.16,2.51-.05,4.16,1.83,4.18,5.01.05,8.04.05,16.09,0,24.13Z"/>
  <path class="cls-1" d="m308.58,259.49c-.03-8.04-.03-16.09,0-24.12.02-3.18,1.61-5.04,4.15-5.04s4.08,1.74,4.11,5.03c.04,4.06,0,8.13,0,12.21s.05,7.94-.02,11.92c-.05,3.31-1.51,5.04-4.12,5.04-2.57,0-4.12-1.81-4.13-5.03Z"/>
  <path class="cls-1" d="m268.02,258.04c-.02,2.31-1.44,3.62-3.67,4-.83.14-1.7.08-2.55.08h-47.51c-15.64,0-31.28,0-46.93,0-1.04,0-2.12.06-3.11-.19-2.08-.52-3.27-1.94-3.17-4.12.08-2.02,1.23-3.36,3.25-3.75.92-.18,1.88-.19,2.83-.19,31.57,0,63.15,0,94.72,0,.85,0,1.72-.02,2.55.11,2.27.37,3.61,1.75,3.58,4.06Z"/>
  <path class="cls-1" d="m268.02,308.59c-.07,2.01-1.19,3.37-3.21,3.79-.92.18-1.88.2-2.83.2-31.57,0-63.15,0-94.72,0-.38,0-.76,0-1.14,0-3.24-.11-5.07-1.61-5.07-4.13s1.88-4.1,5.07-4.12c8.25-.03,16.5-.02,24.75-.02h23.89c15.65,0,31.29,0,46.94,0,1.04,0,2.11-.06,3.11.17,2.09.5,3.3,1.91,3.21,4.09Z"/>
  <path class="cls-1" d="m268.02,283.17c.03,2.16-1.17,3.57-3.3,3.99-.91.18-1.88.11-2.83.11h-94.7c-.48,0-.95.02-1.42,0-2.98-.09-4.77-1.67-4.71-4.14.05-2.35,1.8-3.87,4.6-3.94,1.99-.05,3.98-.02,5.97-.02h42.94c15.74,0,31.47,0,47.2,0,.95,0,1.91-.08,2.84.08,2.15.37,3.36,1.76,3.4,3.9Z"/>
  <path class="cls-1" d="m218.58,232.55c0,2.71-1.87,4.07-5.64,4.07-15.37,0-30.74,0-46.12,0-3.89,0-5.77-1.28-5.77-3.89s1.97-4.06,5.67-4.06c7.68,0,15.36,0,23.05,0s15.37,0,23.06,0c4,0,5.74,1.19,5.74,3.88Z"/>
  <path class="cls-1" d="m316.83,259.47c-.05,3.31-1.51,5.04-4.12,5.04-2.57,0-4.12-1.81-4.13-5.03-.03-8.04-.03-16.09,0-24.12.02-3.18,1.61-5.04,4.15-5.04s4.08,1.74,4.11,5.03c.04,4.06,0,8.13,0,12.21s.05,7.94-.02,11.92Z"/>
  <path class="cls-1" d="m316.83,305.8c-.02,3.22-1.57,5.12-4.05,5.16-2.59.05-4.18-1.92-4.2-5.31-.03-3.87,0-7.75,0-11.64,0-4.07-.03-8.13,0-12.21.03-3.16,1.6-5.11,4.07-5.16,2.51-.05,4.16,1.83,4.18,5.01.05,8.04.05,16.09,0,24.13Z"/>
</svg>